<svg xmlns="http://www.w3.org/2000/svg" width="995" height="518" viewBox="0 0 995 518" font-family="Helvetica, Arial, sans-serif">
<rect width="100%" height="100%" fill="#ffffff"/>
<g fill="none" stroke="#1d2330" stroke-width="1.6" stroke-linejoin="round" stroke-linecap="round">
<polyline points="774.4,396.8 774.4,428.8 "/>
<polyline points="102.4,160.0 102.4,192.0 "/>
<polyline points="230.4,160.0 230.4,192.0 "/>
<polyline points="358.4,160.0 358.4,192.0 "/>
<polyline points="486.4,160.0 486.4,192.0 "/>
<polyline points="710.4,64.0 710.4,96.0 "/>
<polyline points="838.4,64.0 838.4,96.0 "/>
<polyline points="710.4,64.0 774.4,64.0 "/>
<polyline points="774.4,64.0 838.4,64.0 "/>
<polyline points="102.4,96.0 102.4,64.0 "/>
<polyline points="646.4,220.8 678.4,220.8 "/>
<polyline points="230.4,96.0 230.4,64.0 "/>
<polyline points="870.4,284.8 902.4,284.8 "/>
<polyline points="358.4,96.0 358.4,64.0 "/>
<polyline points="646.4,364.8 742.4,364.8 "/>
<polyline points="486.4,96.0 486.4,64.0 "/>
<polyline points="710.4,160.0 710.4,176.0 "/>
<polyline points="742.4,128.0 758.4,128.0 "/>
<polyline points="710.4,160.0 710.4,176.0 758.4,176.0 758.4,128.0 742.4,128.0 "/>
<polyline points="710.4,176.0 710.4,188.8 "/>
<polyline points="758.4,128.0 806.4,128.0 "/>
<polyline points="710.4,252.8 710.4,332.8 "/>
<polyline points="838.4,316.8 838.4,332.8 "/>
<polyline points="710.4,332.8 774.4,332.8 "/>
<polyline points="774.4,332.8 838.4,332.8 "/>
<polyline points="838.4,160.0 838.4,220.8 "/>
<polyline points="902.4,220.8 838.4,220.8 "/>
<polyline points="838.4,220.8 838.4,252.8 "/>
<polyline points="710.4,188.8 710.4,208.0 705.6,208.0 "/>
<polyline points="710.4,252.8 710.4,233.6 705.6,233.6 "/>
<polyline points="705.6,204.8 705.6,236.8 "/>
<polyline points="699.2,208.0 699.2,233.6 "/>
<polyline points="678.4,220.8 699.2,220.8 "/>
<polyline points="838.4,252.8 838.4,272.0 843.2,272.0 "/>
<polyline points="838.4,316.8 838.4,297.6 843.2,297.6 "/>
<polyline points="843.2,268.8 843.2,300.8 "/>
<polyline points="849.6,272.0 849.6,297.6 "/>
<polyline points="870.4,284.8 849.6,284.8 "/>
<polyline points="710.4,160.0 710.4,140.8 715.2,140.8 "/>
<polyline points="710.4,96.0 710.4,115.2 715.2,115.2 "/>
<polyline points="715.2,144.0 715.2,112.0 "/>
<polyline points="721.6,140.8 721.6,115.2 "/>
<circle cx="724.8" cy="128.0" r="3.2" fill="#ffffff"/>
<polyline points="742.4,128.0 728.0,128.0 "/>
<polyline points="838.4,160.0 838.4,140.8 833.6,140.8 "/>
<polyline points="838.4,96.0 838.4,115.2 833.6,115.2 "/>
<polyline points="833.6,144.0 833.6,112.0 "/>
<polyline points="827.2,140.8 827.2,115.2 "/>
<circle cx="824.0" cy="128.0" r="3.2" fill="#ffffff"/>
<polyline points="806.4,128.0 820.8,128.0 "/>
<polyline points="774.4,332.8 774.4,352.0 769.6,352.0 "/>
<polyline points="774.4,396.8 774.4,377.6 769.6,377.6 "/>
<polyline points="769.6,348.8 769.6,380.8 "/>
<polyline points="763.2,352.0 763.2,377.6 "/>
<polyline points="742.4,364.8 763.2,364.8 "/>
<polyline points="760.0,428.8 788.8,428.8 "/>
<polyline points="764.8,433.6 784.0,433.6 "/>
<polyline points="771.2,438.4 777.6,438.4 "/>
<polyline points="760.0,64.0 788.8,64.0 "/>
<text x="774.4" y="58.0" text-anchor="middle" font-size="12" fill="#1d2330" stroke="none">vdd</text>
<circle cx="646.4" cy="220.8" r="4.8" fill="#ffffff"/>
<text x="639.4" y="224.8" text-anchor="end" font-size="12" fill="#1d2330" stroke="none">inn</text>
<circle cx="902.4" cy="284.8" r="4.8" fill="#ffffff"/>
<text x="909.4" y="288.8" text-anchor="start" font-size="12" fill="#1d2330" stroke="none">inp</text>
<circle cx="902.4" cy="220.8" r="4.8" fill="#ffffff"/>
<text x="909.4" y="224.8" text-anchor="start" font-size="12" fill="#1d2330" stroke="none">out</text>
<polyline points="102.4,96.0 102.4,113.6 "/>
<polyline points="102.4,142.4 102.4,160.0 "/>
<circle cx="102.4" cy="128.0" r="14.4" fill="#ffffff"/>
<polyline points="99.2,118.4 105.6,118.4 "/>
<polyline points="102.4,115.2 102.4,121.6 "/>
<polyline points="99.2,136.0 105.6,136.0 "/>
<polyline points="88.0,64.0 116.8,64.0 "/>
<text x="102.4" y="58.0" text-anchor="middle" font-size="12" fill="#1d2330" stroke="none">vdd</text>
<polyline points="88.0,192.0 116.8,192.0 "/>
<polyline points="92.8,196.8 112.0,196.8 "/>
<polyline points="99.2,201.6 105.6,201.6 "/>
<polyline points="230.4,96.0 230.4,113.6 "/>
<polyline points="230.4,142.4 230.4,160.0 "/>
<circle cx="230.4" cy="128.0" r="14.4" fill="#ffffff"/>
<polyline points="227.2,118.4 233.6,118.4 "/>
<polyline points="230.4,115.2 230.4,121.6 "/>
<polyline points="227.2,136.0 233.6,136.0 "/>
<circle cx="230.4" cy="64.0" r="4.8" fill="#ffffff"/>
<text x="230.4" y="58.0" text-anchor="middle" font-size="12" fill="#1d2330" stroke="none">inn</text>
<polyline points="216.0,192.0 244.8,192.0 "/>
<polyline points="220.8,196.8 240.0,196.8 "/>
<polyline points="227.2,201.6 233.6,201.6 "/>
<polyline points="358.4,96.0 358.4,113.6 "/>
<polyline points="358.4,142.4 358.4,160.0 "/>
<circle cx="358.4" cy="128.0" r="14.4" fill="#ffffff"/>
<polyline points="355.2,118.4 361.6,118.4 "/>
<polyline points="358.4,115.2 358.4,121.6 "/>
<polyline points="355.2,136.0 361.6,136.0 "/>
<circle cx="358.4" cy="64.0" r="4.8" fill="#ffffff"/>
<text x="358.4" y="58.0" text-anchor="middle" font-size="12" fill="#1d2330" stroke="none">inp</text>
<polyline points="344.0,192.0 372.8,192.0 "/>
<polyline points="348.8,196.8 368.0,196.8 "/>
<polyline points="355.2,201.6 361.6,201.6 "/>
<polyline points="486.4,96.0 486.4,113.6 "/>
<polyline points="486.4,142.4 486.4,160.0 "/>
<circle cx="486.4" cy="128.0" r="14.4" fill="#ffffff"/>
<polyline points="483.2,118.4 489.6,118.4 "/>
<polyline points="486.4,115.2 486.4,121.6 "/>
<polyline points="483.2,136.0 489.6,136.0 "/>
<polyline points="472.0,192.0 500.8,192.0 "/>
<polyline points="476.8,196.8 496.0,196.8 "/>
<polyline points="483.2,201.6 489.6,201.6 "/>
</g>
<circle cx="774.4" cy="332.8" r="3.8" fill="#1d2330" stroke="none"/>
<circle cx="710.4" cy="176.0" r="3.8" fill="#1d2330" stroke="none"/>
<circle cx="758.4" cy="128.0" r="3.8" fill="#1d2330" stroke="none"/>
<circle cx="838.4" cy="220.8" r="3.8" fill="#1d2330" stroke="none"/>
<text x="715.2" y="220.8" text-anchor="start" font-size="11" fill="#56607a" stroke="none">m1</text>
<text x="875.2" y="265.6" text-anchor="start" font-size="11" fill="#56607a" stroke="none">m2</text>
<text x="747.2" y="108.8" text-anchor="start" font-size="11" fill="#56607a" stroke="none">m3</text>
<text x="843.2" y="128.0" text-anchor="start" font-size="11" fill="#56607a" stroke="none">m4</text>
<text x="779.2" y="364.8" text-anchor="start" font-size="11" fill="#56607a" stroke="none">m5</text>
<text x="121.6" y="128.0" text-anchor="start" font-size="11" fill="#56607a" stroke="none">vdd</text>
<text x="249.6" y="128.0" text-anchor="start" font-size="11" fill="#56607a" stroke="none">vinn</text>
<text x="377.6" y="128.0" text-anchor="start" font-size="11" fill="#56607a" stroke="none">vinp</text>
<text x="505.6" y="128.0" text-anchor="start" font-size="11" fill="#56607a" stroke="none">vb</text>
<text x="639.4" y="368.8" text-anchor="end" font-size="12" fill="#2a62b8" stroke="none" font-style="italic">vb</text>
<text x="486.4" y="58.0" text-anchor="middle" font-size="12" fill="#2a62b8" stroke="none" font-style="italic">vb</text>
<text x="40.0" y="511.6" text-anchor="start" font-size="12" fill="#1d2330" stroke="none">Five-transistor OTA</text>
</svg>
